# xmcd
#
# Track frame offsets:
# 150
# 6649
# 21236
# 33029
# 46934
# 67036
# 75360
# 97184
# 116135
# 128618
# 150383
# 163414
#
# Disc length: 2538 seconds
#
#
# Revision: 0
# Processed by: cddbd v1.5.2PL0 Copyright (c) Steve Scherf et al.
# Submitted via: FreeRIP 2.80 
#
DISCID=9609e80c
DTITLE=Cabinessence - Comes Back To You
DYEAR=2006
DGENRE=Country
TTITLE0=D
TTITLE1=Down By The Riverside
TTITLE2=Bread And Butter
TTITLE3=Stars
TTITLE4=It Won't Be Long
TTITLE5=Instrumental No.1
TTITLE6=I Know
TTITLE7=There Goes The Show
TTITLE8=Built That Way
TTITLE9=Thank You
TTITLE10=Gypsy Rose
TTITLE11=A Sound That I Hear
EXTD=
EXTT0=
EXTT1=
EXTT2=
EXTT3=
EXTT4=
EXTT5=
EXTT6=
EXTT7=
EXTT8=
EXTT9=
EXTT10=
EXTT11=
PLAYORDER=
